<svg version="1" xmlns="http://www.w3.org/2000/svg" width="533.333" height="533.333" viewBox="0 0 400.000000 400.000000"><path d="M34 20.3c-4.9 1.5-12.3 9.3-13.8 14.3-.9 3.2-1.2 42.9-1.2 173.2v169.1l2.2 1.5c1.7 1.2 4.9 1.6 12.9 1.6 13.3 0 13.7-.3 14.1-11.5l.3-8h303l.5 8.1c.7 11.2.9 11.4 13.9 11.4 8 0 11.2-.4 12.9-1.6l2.2-1.5V208.4c0-125.7-.3-169.7-1.2-173.2-1.4-5.8-8.5-13.2-14.3-15-5.5-1.6-326.2-1.6-331.5.1zm317.5 65.2v37h-303l-.3-36c-.1-19.8 0-36.6.3-37.2.3-1.1 30.9-1.3 151.7-1.1l151.3.3v37zm0 104v37h-303l-.3-36c-.1-19.8 0-36.6.3-37.2.3-1.1 30.9-1.3 151.7-1.1l151.3.3v37zm0 104v37h-303l-.3-36c-.1-19.8 0-36.6.3-37.2.3-1.1 30.9-1.3 151.7-1.1l151.3.3v37z"/><path d="M142.5 73.4c-1.6.7-4.1 2.6-5.5 4-2 2.3-2.5 3.7-2.5 8.7 0 5.5.3 6.2 3.8 9.6l3.7 3.8h116l3.7-3.8c3.5-3.4 3.8-4.1 3.8-9.6 0-5-.5-6.4-2.5-8.7-5.1-5.5-4.5-5.4-63.2-5.4-43 .1-54.9.4-57.3 1.4zM142.5 176.4c-5.7 2.5-7.8 5.9-7.9 12.5-.1 5.3.3 6.3 2.9 9.1 1.6 1.7 4.5 3.5 6.5 4.1 2.3.7 22.7.9 58.7.7l55.3-.3 3.7-3.8c3.5-3.4 3.8-4.1 3.8-9.6 0-5-.5-6.4-2.5-8.7-5.1-5.5-4.5-5.4-63.2-5.4-43 .1-54.9.4-57.3 1.4zM142.5 279.4c-1.6.7-4.1 2.6-5.5 4.1-2.1 2.2-2.5 3.7-2.5 8.6 0 5.5.3 6.1 3.8 9.6l3.7 3.8h115.9l3.5-3.4c6.4-6.2 5.9-16.4-1.1-21.1l-3.7-2.5-55.5-.2c-44.8-.2-56.2 0-58.6 1.1z"/></svg>